<svg width="25" height="25" viewBox="0 0 25 25" fill="none" xmlns="http://www.w3.org/2000/svg">
<g clip-path="url(#clip0_38_13)">
<path d="M24.436 17.6155L24.388 17.4238H21.3771C20.9887 17.4238 20.6737 17.1089 20.6737 16.7204C20.6737 16.3319 20.9887 16.017 21.3771 16.017H24.0364L23.9991 15.868C23.8099 15.1065 23.3711 14.4303 22.7527 13.9473C22.1342 13.4643 21.3719 13.2024 20.5872 13.2034H18.9277L16.7679 10.1494C16.4079 9.43016 15.6846 8.98297 14.8802 8.98297C11.9834 8.98297 10.6709 8.98297 6.52225 8.98297C5.55231 8.98297 4.71011 9.64039 4.49584 10.5127L3.52342 13.2034H2.6102C1.44658 13.2034 0.499985 14.15 0.499985 15.3136V18.1273C0.499985 19.2909 1.44658 20.2375 2.6102 20.2375H3.31361C3.31361 21.7892 4.57548 23.0511 6.12723 23.0511C7.67898 23.0511 8.94086 21.7892 8.94086 20.2375H16.4532C16.4532 21.7892 17.7151 23.0511 19.2669 23.0511C20.8186 23.0511 22.0805 21.7892 22.0805 20.2375H22.3889C23.0429 20.2375 23.6494 19.9414 24.052 19.4262C24.4553 18.9103 24.5947 18.2502 24.436 17.6155ZM6.12723 21.6443C5.35169 21.6443 4.72042 21.0131 4.72042 20.2375C4.72042 19.462 5.35169 18.8307 6.12723 18.8307C6.90278 18.8307 7.53405 19.462 7.53405 20.2375C7.53405 21.0131 6.90278 21.6443 6.12723 21.6443ZM10.4133 13.2034H5.01789L5.83942 10.9228C5.87741 10.7705 5.96527 10.6352 6.08901 10.5386C6.21276 10.442 6.36526 10.3896 6.52225 10.3897H10.4133V13.2034ZM11.8202 13.2034V10.3898H14.8802C15.1488 10.3898 15.3899 10.5388 15.5637 10.8693L17.2075 13.2034H11.8202ZM19.2669 21.6443C18.4914 21.6443 17.8601 21.0131 17.8601 20.2375C17.8601 19.462 18.4914 18.8307 19.2669 18.8307C20.0425 18.8307 20.6737 19.462 20.6737 20.2375C20.6737 21.0131 20.0425 21.6443 19.2669 21.6443Z" fill="white"/>
</g>
<defs>
<clipPath id="clip0_38_13">
<rect width="24" height="24" fill="white" transform="translate(0.499985 0.5)"/>
</clipPath>
</defs>
</svg>
