<svg width="25" height="25" viewBox="0 0 25 25" fill="none" xmlns="http://www.w3.org/2000/svg">
<g clip-path="url(#clip0_4_2999)">
<path d="M12.333 6.50008C13.9898 6.50008 15.333 5.15696 15.333 3.50013C15.333 1.8433 13.9898 0.500183 12.333 0.500183C10.6762 0.500183 9.33307 1.8433 9.33307 3.50013C9.33307 5.15696 10.6762 6.50008 12.333 6.50008Z" fill="#65BEC2"/>
<path d="M16.8269 14.6539L16.1459 9.35004C16.11 8.97981 15.9373 8.63629 15.6616 8.38663C15.3859 8.13697 15.0269 7.99913 14.655 8.00007H13.833C13.6335 8.00007 13.443 8.07956 13.302 8.21906L12.333 9.18804L11.364 8.21906C11.2228 8.07899 11.032 8.0003 10.833 8.00007H10.0126C9.23857 8.00007 8.59658 8.58056 8.52158 9.33054L7.83909 14.6554C7.81209 14.8684 7.87809 15.0844 8.02059 15.2449C8.09079 15.325 8.17729 15.3892 8.27429 15.4332C8.37129 15.4772 8.47657 15.4999 8.58308 15.4999H9.39306L10.0201 23.1498C10.0951 23.9178 10.7385 24.4998 11.5125 24.4998H13.155C13.929 24.4998 14.571 23.9178 14.649 23.1363L15.2745 15.4999H16.0829C16.2989 15.4999 16.5029 15.4069 16.6454 15.2449C16.7166 15.1654 16.7696 15.0714 16.801 14.9693C16.8323 14.8673 16.8412 14.7597 16.8269 14.6539Z" fill="#65BEC2"/>
<path d="M19.8329 6.50008C21.4897 6.50008 22.8328 5.15696 22.8328 3.50013C22.8328 1.8433 21.4897 0.500183 19.8329 0.500183C18.1761 0.500183 16.8329 1.8433 16.8329 3.50013C16.8329 5.15696 18.1761 6.50008 19.8329 6.50008Z" fill="#65BEC2"/>
<path d="M4.83315 0.500183C3.17868 0.500183 1.8332 1.84566 1.8332 3.50013C1.8332 5.1546 3.17868 6.50008 4.83315 6.50008C6.48612 6.50008 7.8331 5.1546 7.8331 3.50013C7.8331 1.84566 6.48612 0.500183 4.83315 0.500183ZM24.3268 14.6539L23.6458 9.35153C23.5693 8.58054 22.9288 8.00005 22.1548 8.00005H21.3329C21.1334 8.00005 20.9429 8.07955 20.8019 8.21905L19.8329 9.18803L18.8639 8.21905C18.7229 8.07955 18.5324 8.00005 18.3344 8.00005H17.5124C17.4194 8.00005 17.3354 8.03305 17.2469 8.04955C17.4404 8.39154 17.5919 8.76204 17.6369 9.17753L18.3164 14.4634C18.4004 15.1069 18.1994 15.7549 17.7674 16.2424C17.5634 16.4764 17.3024 16.6414 17.0234 16.7704L17.5214 21.6498C17.5979 22.4193 18.2399 22.9998 19.0139 22.9998H20.6564C21.4304 22.9998 22.0723 22.4178 22.1503 21.6363L22.7743 15.4999H23.5828C23.7988 15.4999 24.0028 15.4069 24.1453 15.2449C24.2165 15.1654 24.2695 15.0713 24.3009 14.9693C24.3322 14.8673 24.341 14.7597 24.3268 14.6539ZM6.89411 16.2349C6.46812 15.7534 6.27012 15.1069 6.35112 14.4664L7.03361 9.14003C7.07261 8.74104 7.21961 8.38104 7.4071 8.04805C7.32311 8.03305 7.24361 8.00005 7.15511 8.00005H6.33312C6.13363 8.00005 5.94313 8.07955 5.80213 8.21905L4.83315 9.18803L3.86417 8.21905C3.72317 8.07955 3.53267 8.00005 3.33468 8.00005H2.51264C1.73866 8.00005 1.09667 8.58054 1.02167 9.33053L0.339182 14.6554C0.312183 14.8684 0.378182 15.0844 0.520679 15.2449C0.59098 15.3249 0.677495 15.389 0.774477 15.433C0.871459 15.4769 0.976687 15.4998 1.08317 15.4999H1.89316L2.52014 21.6498C2.59514 22.4178 3.23863 22.9998 4.01262 22.9998H5.65509C6.42908 22.9998 7.07106 22.4178 7.14906 21.6363L7.64705 16.7689C7.36661 16.6384 7.10411 16.4719 6.89411 16.2349Z" fill="#65BEC2"/>
</g>
<defs>
<clipPath id="clip0_4_2999">
<rect width="24" height="24" fill="white" transform="translate(0.333313 0.5)"/>
</clipPath>
</defs>
</svg>
