<svg width="21" height="21" viewBox="0 0 21 21" fill="none" xmlns="http://www.w3.org/2000/svg">
<path d="M19.1275 9.48458C19.033 9.62056 18.8883 9.7135 18.7254 9.74303C18.5624 9.77255 18.3944 9.73625 18.2581 9.64208L10.8456 4.51083C10.7409 4.43859 10.6166 4.3999 10.4894 4.3999C10.3621 4.3999 10.2379 4.43859 10.1331 4.51083L2.7425 9.64208C2.60626 9.73353 2.43951 9.76774 2.27827 9.73731C2.11702 9.70688 1.97421 9.61426 1.88067 9.47944C1.78713 9.34463 1.75035 9.17843 1.77829 9.01673C1.80623 8.85504 1.89664 8.71082 2.03 8.61521L9.42063 3.48396C9.73474 3.26756 10.1071 3.15159 10.4886 3.15137C10.87 3.15114 11.2425 3.26668 11.5569 3.48271L18.9694 8.61396C19.037 8.66068 19.0947 8.72028 19.1393 8.78935C19.1839 8.85842 19.2143 8.9356 19.229 9.01647C19.2437 9.09734 19.2423 9.18031 19.2249 9.26064C19.2075 9.34096 19.1744 9.41706 19.1275 9.48458ZM16.5425 9.43083L10.8475 5.61958C10.7447 5.55071 10.6237 5.51394 10.5 5.51394C10.3763 5.51394 10.2553 5.55071 10.1525 5.61958L4.4575 9.43083C4.2012 9.60195 3.99111 9.8337 3.84588 10.1055C3.70065 10.3773 3.62478 10.6808 3.625 10.989V16.4515C3.6255 16.9486 3.8232 17.4252 4.17472 17.7767C4.52625 18.1283 5.00287 18.326 5.5 18.3265H8V14.5765C8 14.0792 8.19754 13.6023 8.54917 13.2506C8.90081 12.899 9.37772 12.7015 9.875 12.7015H11.125C11.6223 12.7015 12.0992 12.899 12.4508 13.2506C12.8025 13.6023 13 14.0792 13 14.5765V18.3265H15.5C15.9971 18.326 16.4738 18.1283 16.8253 17.7767C17.1768 17.4252 17.3745 16.9486 17.375 16.4515V10.989C17.3752 10.6808 17.2993 10.3773 17.1541 10.1055C17.0089 9.8337 16.7988 9.60195 16.5425 9.43083ZM17.375 4.57646C17.375 4.24494 17.2433 3.92699 17.0089 3.69257C16.7745 3.45815 16.4565 3.32646 16.125 3.32646H15.5C15.2821 3.32689 15.0682 3.3845 14.8795 3.49351C14.6909 3.60253 14.5342 3.75915 14.425 3.94771L17.375 5.99021V4.57646Z" fill="white"/>
<line x1="7.5" y1="17.8264" x2="13.5" y2="17.8264" stroke="white"/>
</svg>
