<svg width="100" height="100" viewBox="0 0 100 100" fill="none" xmlns="http://www.w3.org/2000/svg">
<path d="M85.8223 32.1776L67.3224 13.6777C66.4188 12.7741 64.9555 12.7741 64.0525 13.6777C63.1495 14.5813 63.1489 16.0445 64.0525 16.9476L67.0426 19.9376L58.75 28.2302L51.135 20.6152C50.2313 19.7116 48.7681 19.7116 47.8651 20.6152C46.9621 21.5188 46.9615 22.982 47.8651 23.885L50.8551 26.8751L26.3751 51.3551C24.5708 53.1582 24.5708 56.0916 26.3751 57.8954L27.7303 59.2499L23.3857 63.5939C22.7395 64.2368 22.2271 65.0013 21.8782 65.8434C21.5294 66.6855 21.3508 67.5884 21.353 68.4998C21.353 70.218 21.9976 71.8264 23.133 73.0976L13.1778 83.0523C12.9629 83.2669 12.7925 83.5218 12.6762 83.8023C12.5599 84.0829 12.5 84.3836 12.5 84.6873C12.5 84.9909 12.5599 85.2916 12.6762 85.5722C12.7925 85.8527 12.9629 86.1076 13.1778 86.3222C13.6293 86.7737 14.2213 86.9997 14.8127 86.9997C15.4041 86.9997 15.9961 86.7737 16.4476 86.3222L26.4029 76.3669C27.7135 77.533 29.3484 78.1429 31.0001 78.1429C32.775 78.1429 34.5527 77.4665 35.9049 76.1149L40.2501 71.7697L41.6052 73.1248C42.5065 74.0273 43.6916 74.4776 44.875 74.4776C46.0585 74.4776 47.2442 74.0273 48.1449 73.1248L72.6249 48.6448L75.6149 51.6349C76.0665 52.0864 76.6585 52.3124 77.2499 52.3124C77.8413 52.3124 78.4333 52.0864 78.8848 51.6349C79.0997 51.4203 79.2701 51.1654 79.3864 50.8849C79.5027 50.6043 79.5626 50.3036 79.5626 49.9999C79.5626 49.6963 79.5027 49.3955 79.3864 49.115C79.2701 48.8345 79.0997 48.5796 78.8848 48.365L71.2698 40.75L79.5624 32.4574L82.5524 35.4475C83.0039 35.899 83.5959 36.125 84.1873 36.125C84.7788 36.125 85.3708 35.899 85.8223 35.4475C86.0371 35.2329 86.2076 34.978 86.3239 34.6975C86.4402 34.4169 86.5001 34.1162 86.5001 33.8125C86.5001 33.5088 86.4402 33.2081 86.3239 32.9276C86.2076 32.6471 86.0371 32.3922 85.8223 32.1776ZM32.6351 72.8438C32.2015 73.2774 31.6135 73.521 31.0004 73.5213C30.3872 73.5215 29.7991 73.2782 29.3652 72.845L26.655 70.1342C26.2167 69.6983 25.9774 69.1179 25.9774 68.5004C25.9774 67.883 26.2167 67.3026 26.655 66.8655L31.0001 62.5197L36.9802 68.4998L32.6351 72.8438ZM63.3749 51.3551L55.7599 43.74C54.8563 42.8364 53.3931 42.8364 52.4901 43.74C51.587 44.6436 51.5865 46.1069 52.4901 47.0099L60.1051 54.6249L54.125 60.605L46.51 52.99C45.6064 52.0864 44.1431 52.0864 43.2401 52.99C42.3371 53.8936 42.3365 55.3568 43.2401 56.2598L50.8551 63.8749L44.875 69.855L29.645 54.6249L54.125 30.1449L69.355 45.375L63.3749 51.3551ZM67.9999 37.4801L62.0198 31.5L70.3124 23.2075L76.2925 29.1876L67.9999 37.4801Z" fill="#B30738"/>
</svg>
