<svg width="100" height="100" viewBox="0 0 100 100" fill="none" xmlns="http://www.w3.org/2000/svg">
<path d="M85.985 48.8178C85.822 48.6055 81.9191 43.5611 75.5894 38.4645C71.8486 35.4527 68.0298 33.0476 64.2388 31.3164C59.4204 29.1158 54.6298 28 50.0001 28C45.3705 28 40.58 29.1158 35.7615 31.3164C31.9705 33.0477 28.1515 35.4527 24.4109 38.4645C18.081 43.5611 14.1781 48.6055 14.0151 48.8178L13.0001 50.1391L14.015 51.4604C14.178 51.6727 18.0809 56.717 24.4108 61.8138C28.1515 64.8255 31.9703 67.2306 35.7614 68.9618C40.5798 71.1626 45.3704 72.2784 50 72.2784C54.6296 72.2784 59.4201 71.1626 64.2386 68.962C68.0297 67.2306 71.8486 64.8256 75.5892 61.8139C81.9191 56.7173 85.822 51.6729 85.9849 51.4606L86.9999 50.1393L85.985 48.8178ZM50 67.9404C40.8886 67.9404 32.5771 62.8052 27.2089 58.4973C23.132 55.2256 20.0798 51.9153 18.5503 50.1398C22.2853 45.8111 35.1091 32.3378 50 32.3378C59.1114 32.3378 67.4229 37.473 72.7911 41.7809C76.8676 45.0523 79.9198 48.3625 81.4497 50.1384C77.7148 54.467 64.891 67.9404 50 67.9404Z" fill="#B30738"/>
<path d="M50.0001 34.7397C41.5087 34.7397 34.6006 41.6478 34.6006 50.1393C34.6006 58.6306 41.5086 65.5388 50.0001 65.5388C58.4915 65.5388 65.3996 58.6308 65.3996 50.1393C65.3996 41.6478 58.4915 34.7397 50.0001 34.7397ZM50.0001 61.2008C43.9006 61.2008 38.9385 56.2388 38.9385 50.1393C38.9385 44.0398 43.9006 39.0777 50.0001 39.0777C56.0996 39.0777 61.0617 44.0398 61.0617 50.1393C61.0617 56.2388 56.0995 61.2008 50.0001 61.2008Z" fill="#B30738"/>
<path d="M50.0002 43.1986C46.1731 43.1986 43.0596 46.3122 43.0596 50.1391C43.0596 53.9662 46.1733 57.0797 50.0002 57.0797C53.8272 57.0797 56.9407 53.966 56.9407 50.1391C56.9408 46.3122 53.8272 43.1986 50.0002 43.1986ZM50.0002 52.742C48.5651 52.742 47.3974 51.5743 47.3974 50.1393C47.3974 48.7042 48.5651 47.5366 50.0002 47.5366C51.4352 47.5366 52.6029 48.7042 52.6029 50.1393C52.6029 51.5743 51.4352 52.742 50.0002 52.742Z" fill="#B30738"/>
</svg>
