<svg width="100" height="100" viewBox="0 0 100 100" fill="none" xmlns="http://www.w3.org/2000/svg">
<mask id="mask0_20_1750" style="mask-type:luminance" maskUnits="userSpaceOnUse" x="11" y="11" width="78" height="78">
<path d="M87.1719 87.1719V12.8281H12.8281V87.1719H87.1719Z" fill="white" stroke="white" stroke-width="3.65626"/>
</mask>
<g mask="url(#mask0_20_1750)">
<path d="M49.5869 69.444L39.9559 79.0749C34.7224 84.3084 26.1586 84.3084 20.9251 79.0749C15.6916 73.8413 15.6917 65.2775 20.9251 60.0442L30.693 50.2763" stroke="#B30738" stroke-width="3.65626" stroke-miterlimit="22.926" stroke-linecap="round" stroke-linejoin="round"/>
<path d="M50 30.9692L60.0442 20.925C65.2775 15.6917 73.8413 15.6917 79.0749 20.9252C84.3084 26.1586 84.3084 34.7225 79.0749 39.9561L69.1678 49.863" stroke="#B30738" stroke-width="3.65626" stroke-miterlimit="22.926" stroke-linecap="round" stroke-linejoin="round"/>
<path d="M39.956 20.925L79.075 60.0439C84.3085 65.2774 84.3083 73.8412 79.075 79.0747C73.8414 84.3083 65.2776 84.3083 60.0441 79.0748L20.9252 39.9557C15.6917 34.7224 15.6917 26.1585 20.9252 20.925C26.1586 15.6915 34.7225 15.6915 39.956 20.925Z" stroke="#B30738" stroke-width="3.65626" stroke-miterlimit="22.926" stroke-linecap="round" stroke-linejoin="round"/>
<path d="M47.0252 27.9943L72.0057 52.9749L52.9748 72.0057L27.9943 47.0251L47.0252 27.9943Z" stroke="#B30738" stroke-width="3.65626" stroke-miterlimit="22.926" stroke-linecap="round" stroke-linejoin="round"/>
<path d="M46.9597 41.1021L46.9598 41.102C47.048 41.0137 47.1909 41.0137 47.2791 41.1019C47.3671 41.1899 47.3673 41.333 47.2791 41.4213C47.2791 41.4213 47.2791 41.4213 47.279 41.4214M46.9597 41.1021L45.6671 39.8093C44.865 40.6113 44.865 41.9118 45.6671 42.714C46.4693 43.5161 47.7697 43.5161 48.5718 42.714L47.279 41.4214M46.9597 41.1021C46.8717 41.19 46.8716 41.333 46.9598 41.4213C47.048 41.5094 47.1908 41.5095 47.279 41.4214M46.9597 41.1021L47.279 41.4214" fill="#B30738" stroke="#B30738" stroke-width="3.65626"/>
<path d="M53.0884 47.2308C53.0884 47.2308 53.0885 47.2307 53.0885 47.2307C53.1768 47.1423 53.1766 46.9993 53.0885 46.9112C53.0006 46.8234 52.8577 46.823 52.7691 46.9113C52.6811 46.9995 52.681 47.1425 52.7694 47.2309L51.4765 48.5234C52.2788 49.3254 53.5792 49.3254 54.3812 48.5234L53.0884 47.2308Z" fill="#B30738" stroke="#B30738" stroke-width="3.65626"/>
<path d="M58.8979 53.0404L58.898 53.0403C58.9863 52.952 58.9861 52.8091 58.8981 52.7211L58.8979 52.7209C58.8099 52.6329 58.667 52.6327 58.5787 52.721L58.5786 52.7211C58.4906 52.8091 58.4904 52.952 58.5787 53.0403L57.286 54.333L58.5787 53.0403C58.667 53.1286 58.8099 53.1284 58.8979 53.0404Z" fill="#B30738" stroke="#B30738" stroke-width="3.65626"/>
<path d="M41.4212 46.9597L41.4214 46.96C41.5093 47.0478 41.5097 47.1907 41.4213 47.2792C41.4213 47.2792 41.4212 47.2792 41.4212 47.2793M41.4212 46.9597L41.4212 47.2793M41.4212 46.9597C41.3332 46.8717 41.1902 46.8716 41.102 46.9598L41.1019 46.96M41.4212 46.9597L41.1019 46.96M41.4212 47.2793C41.3332 47.3671 41.1904 47.3673 41.1021 47.2793M41.4212 47.2793L41.1021 47.2793M41.1021 47.2793C41.102 47.2792 41.1019 47.2791 41.1019 47.279M41.1021 47.2793L41.1019 47.279M41.1019 46.96C41.014 47.0478 41.0136 47.1905 41.1019 47.279M41.1019 46.96V47.279" fill="#B30738" stroke="#B30738" stroke-width="3.65626"/>
<path d="M47.2307 53.0886C47.2307 53.0886 47.2308 53.0885 47.2308 53.0885C47.3189 53.0002 47.3188 52.8573 47.2309 52.7693L47.2307 53.0886ZM47.2307 53.0886C47.1426 53.1766 46.9999 53.1768 46.9114 53.0886L47.2307 53.0886ZM47.2308 52.7692C47.1427 52.6812 46.9998 52.681 46.9113 52.7692C46.9113 52.7692 46.9113 52.7693 46.9112 52.7693L47.2308 52.7692Z" fill="#B30738" stroke="#B30738" stroke-width="3.65626"/>
<path d="M53.0402 58.8981L53.0401 58.8982C52.9521 58.9861 52.8092 58.9863 52.721 58.8982C52.7209 58.8981 52.7209 58.8981 52.7208 58.8981M53.0402 58.8981L51.4282 60.1908M53.0402 58.8981C53.1284 58.8098 53.1283 58.6668 53.0403 58.5789L53.0401 58.5786C52.9521 58.4907 52.8091 58.4905 52.7208 58.5788C52.6329 58.6667 52.6327 58.8098 52.7208 58.8981M53.0402 58.8981L52.7208 58.8981M52.7208 58.8981L51.4282 60.1908M51.4282 60.1908C50.6262 59.3886 50.6262 58.0881 51.4282 57.2861C52.2303 56.4839 53.5308 56.4839 54.3328 57.2861C55.135 58.0881 55.135 59.3886 54.3328 60.1908C53.5308 60.9929 52.2303 60.9929 51.4282 60.1908Z" fill="#B30738" stroke="#B30738" stroke-width="3.65626"/>
</g>
</svg>
