<svg width="100" height="100" viewBox="0 0 100 100" fill="none" xmlns="http://www.w3.org/2000/svg">
<path d="M40.1744 62.9351V54.4528M34.5195 45.9706V40.033C34.5195 34.5676 38.9501 30.1371 44.4155 30.1371H55.7251C61.1905 30.1371 65.6211 34.5676 65.6211 40.033V41.7295M84.1406 84.1407H16V81.3132C16 78.1902 18.5318 75.6584 21.6548 75.6584H78.4858C81.6088 75.6584 84.1406 78.1902 84.1406 81.3132V84.1407Z" stroke="#B30738" stroke-width="4.86352" stroke-miterlimit="10" stroke-linecap="round" stroke-linejoin="round"/>
<path d="M22.3617 75.6584C25.8751 75.6584 28.7234 72.8102 28.7234 69.2967C28.7234 65.7833 25.8751 62.9351 22.3617 62.9351C18.8482 62.9351 16 65.7833 16 69.2967C16 72.8102 18.8482 75.6584 22.3617 75.6584Z" stroke="#B30738" stroke-width="4.86352" stroke-miterlimit="10" stroke-linecap="round" stroke-linejoin="round"/>
<path d="M51.4841 75.6584H35.0851C31.5716 75.6584 28.7234 72.8102 28.7234 69.2967C28.7234 65.7833 31.5716 62.9351 35.0851 62.9351H48.6566M61.38 67.1762H79.8995C82.2419 67.1762 84.1407 69.0749 84.1407 71.4173C84.1407 73.7597 82.2419 75.6584 79.8995 75.6584H52.8978" stroke="#B30738" stroke-width="4.86352" stroke-miterlimit="10" stroke-linecap="round" stroke-linejoin="round"/>
<path d="M50.0704 30.1371C53.9742 30.1371 57.1389 26.9724 57.1389 23.0685C57.1389 19.1647 53.9742 16 50.0704 16C46.1665 16 43.0018 19.1647 43.0018 23.0685C43.0018 26.9724 46.1665 30.1371 50.0704 30.1371Z" stroke="#B30738" stroke-width="4.86352" stroke-miterlimit="10" stroke-linecap="round" stroke-linejoin="round"/>
<path d="M48.6566 62.935V55.8665C48.6566 55.3754 48.7389 54.9072 48.8565 54.4528M54.3114 50.2117H74.1033C76.4457 50.2117 78.3444 52.1104 78.3444 54.4528C78.3444 56.7952 76.4457 58.6939 74.1033 58.6939H61.38V67.1761C61.38 71.8607 57.5823 75.6584 52.8977 75.6584H48.6566" stroke="#B30738" stroke-width="4.86352" stroke-miterlimit="10" stroke-linecap="round" stroke-linejoin="round"/>
<path d="M34.5195 40.033V48.7979C34.5195 51.921 37.0513 54.4528 40.1744 54.4528H50.0703C52.4127 54.4528 54.3114 52.554 54.3114 50.2116C54.3114 47.8693 52.4127 45.9705 50.0703 45.9705H43.0018V40.033M61.3799 45.9705V50.2116H69.8622V45.9705C69.8622 43.6282 67.9634 41.7294 65.6211 41.7294C63.2787 41.7294 61.3799 43.6282 61.3799 45.9705Z" stroke="#B30738" stroke-width="4.86352" stroke-miterlimit="10" stroke-linecap="round" stroke-linejoin="round"/>
</svg>
