<svg width="112" height="112" viewBox="0 0 112 112" fill="none" xmlns="http://www.w3.org/2000/svg">
<mask id="mask0_24_1947" style="mask-type:luminance" maskUnits="userSpaceOnUse" x="0" y="0" width="112" height="112">
<path d="M109.867 110.117V1.88283H1.63332V110.117H109.867Z" fill="white" stroke="white" stroke-width="3.26663"/>
</mask>
<g mask="url(#mask0_24_1947)">
<path d="M40.7123 49.0421C40.5079 43.4585 39.9386 38.2298 40.9813 32.7037C42.5743 24.2608 35.8039 15.738 32.0604 11.835C28.3168 7.93227 31.2385 -0.369744 40.3983 3.37381C49.5579 7.11757 54.9973 18.0645 55.9259 20.1285C56.8549 22.1924 57.1637 21.7895 58.0997 22.3352L73.0872 7.34776C75.5348 4.89997 79.5405 4.89997 81.9881 7.34776V7.34798C84.4359 9.79577 84.4359 13.8011 81.9883 16.2489L83.5944 14.6428C86.0422 12.1948 90.0477 12.1948 92.4955 14.6428C94.9433 17.0906 94.9433 21.0959 92.4955 23.5439L90.8892 25.15C93.337 22.7022 97.3425 22.7022 99.7903 25.15C102.238 27.5978 102.238 31.6033 99.7903 34.0511L98.2783 35.5629C100.726 33.1151 104.732 33.1151 107.179 35.5629C109.627 38.0109 109.627 42.0162 107.179 44.4642L85.8749 65.7687C81.1355 70.5079 73.2102 72.0611 68.4708 76.8003" stroke="#B30738" stroke-width="3.26663" stroke-miterlimit="2.613" stroke-linecap="round" stroke-linejoin="round"/>
<path d="M43.2496 108.394L68.4708 83.1731C70.2232 81.4207 70.2232 78.553 68.4708 76.8006L40.7125 49.0424C38.9603 47.2899 36.0925 47.2899 34.3402 49.0424L6.1667 77.2159" stroke="#B30738" stroke-width="3.26663" stroke-miterlimit="2.613" stroke-linecap="round" stroke-linejoin="round"/>
<path d="M24.9718 16.3198C27.2605 14.7741 29.6719 13.4183 32.1819 12.2662M103.384 48.326C106.707 64.5421 102.08 82.0623 89.4994 94.643C69.5937 114.549 37.3201 114.549 17.4144 94.643C-0.131754 77.0969 -2.20802 49.9429 11.1782 30.1187M47.4063 7.98753C54.9842 7.08682 62.7253 7.88584 70.0137 10.3824" stroke="#B30738" stroke-width="3.26663" stroke-miterlimit="2.613" stroke-linecap="round" stroke-linejoin="round"/>
<path d="M25.1935 59.4721L58.0409 92.3193" stroke="#B30738" stroke-width="3.26663" stroke-miterlimit="2.613" stroke-linecap="round" stroke-linejoin="round"/>
<path d="M37.1983 58.5037L37.1998 58.5022" stroke="#B30738" stroke-width="3.26663" stroke-miterlimit="22.926" stroke-linecap="round" stroke-linejoin="round"/>
<path d="M17.4128 22.5581H17.4143" stroke="#B30738" stroke-width="3.26663" stroke-miterlimit="2.613" stroke-linecap="round" stroke-linejoin="round"/>
</g>
</svg>
